<?xml version="1.0" standalone="no"?><!DOCTYPE svg PUBLIC "-//W3C//DTD SVG 1.1//EN" "http://www.w3.org/Graphics/SVG/1.1/DTD/svg11.dtd"><svg t="1681918627756" class="icon" viewBox="0 0 1024 1024" version="1.1" xmlns="http://www.w3.org/2000/svg" p-id="2767" width="32" height="32" xmlns:xlink="http://www.w3.org/1999/xlink"><path d="M88.841475 666.494808a202.2 450.2 70.001 1 0 846.10461-307.94017 202.2 450.2 70.001 1 0-846.10461 307.94017Z" fill="#FFFFFF" p-id="2768"></path><path d="M299.9 773.1c-13.5 0-26.6-0.5-39.4-1.4-99.6-7.3-165.9-42.7-186.7-99.8-20.8-57 7.3-126.8 78.9-196.4 68.4-66.5 169.5-126.2 284.6-168.1 115.1-41.9 230.9-61.1 326-54.1 99.6 7.3 165.9 42.7 186.7 99.8 20.8 57-7.3 126.8-78.9 196.4-68.4 66.5-169.5 126.2-284.5 168.1-99.6 36.2-199.8 55.5-286.7 55.5z m423.8-489.2c-83.1 0-179.3 18.6-275.5 53.6-110.9 40.4-207.9 97.5-273.2 161-31 30.1-52.9 59.8-65.1 88.3-11.9 27.6-13.9 52.6-6 74.3 7.9 21.7 25.5 39.5 52.3 53.1 27.7 13.9 63.5 22.6 106.6 25.7 90.8 6.7 201.8-11.9 312.7-52.3 110.9-40.4 207.9-97.5 273.2-161 31-30.1 52.9-59.8 65.1-88.3 11.9-27.6 13.9-52.6 6-74.3-7.9-21.7-25.5-39.5-52.3-53.1-27.7-13.9-63.5-22.6-106.6-25.7-12-0.9-24.4-1.3-37.2-1.3z" fill="#00365B" p-id="2769"></path><path d="M510.9 515.7m-346.5 0a346.5 346.5 0 1 0 693 0 346.5 346.5 0 1 0-693 0Z" fill="#FFFFFF" p-id="2770"></path><path d="M510.9 878.2c-48.9 0-96.4-9.6-141.1-28.5-43.2-18.3-81.9-44.4-115.2-77.7-33.3-33.3-59.4-72.1-77.7-115.2-18.9-44.7-28.5-92.2-28.5-141.1 0-48.9 9.6-96.4 28.5-141.1 18.3-43.2 44.4-81.9 77.7-115.2 33.3-33.3 72.1-59.4 115.2-77.7 44.7-18.9 92.2-28.5 141.1-28.5s96.4 9.6 141.1 28.5c43.2 18.3 81.9 44.4 115.2 77.7 33.3 33.3 59.4 72.1 77.7 115.2 18.9 44.7 28.5 92.2 28.5 141.1 0 48.9-9.6 96.4-28.5 141.1-18.3 43.2-44.4 81.9-77.7 115.2-33.3 33.3-72.1 59.4-115.2 77.7-44.7 18.9-92.2 28.5-141.1 28.5z m0-693.1c-88.3 0-171.3 34.4-233.7 96.8-62.4 62.4-96.8 145.4-96.8 233.7 0 88.3 34.4 171.3 96.8 233.7s145.4 96.8 233.7 96.8 171.3-34.4 233.7-96.8 96.8-145.4 96.8-233.7c0-88.3-34.4-171.3-96.8-233.7s-145.4-96.8-233.7-96.8z" fill="#00365B" p-id="2771"></path><path d="M609.7 185.7l-26-16.8c-4.8-3.1-9.7-6-14.8-8.9l-108.6 15.7L349.5 220 234 309.5c46 42.7 104.8 88.5 108 156.9 0.8 17.9-2.6 35.8-3.6 53.7-1 17.9 0.9 36.9 11.1 51.7 17.6 25.3 50.7 21.2 73.8 7.3 29.5-17.9 55.3-41.2 80.4-64.9 34-32.1 67-65.4 95.5-102.5 15.8-20.6 31.3-44.5 33.8-70.9 2.7-28-4.8-57-8.5-84.6-3.2-23.8-9.1-47.2-14.8-70.5zM495.9 864c46 0 89.9-8.7 130.3-24.5-9.6-17.2-20-34-31.5-50.1-15.1-21.1-32.6-41.3-54.1-56.1-11.5-7.9-37.8-24.6-53.1-19.2-2 0.7-3.8 1.8-5.3 3.2-9.6 9.3-11.7 35.1-14.4 47.4-3 13.9-4.9 28.2-8.5 42-4.8 18.2-11.5 36-20 52.8 18.4 3 37.3 4.5 56.6 4.5z" fill="#5285D6" p-id="2772"></path><path d="M510.9 878.2c-48.9 0-96.4-9.6-141.1-28.5-43.2-18.3-81.9-44.4-115.2-77.7-33.3-33.3-59.4-72.1-77.7-115.2-18.9-44.7-28.5-92.2-28.5-141.1 0-48.9 9.6-96.4 28.5-141.1 18.3-43.2 44.4-81.9 77.7-115.2 33.3-33.3 72.1-59.4 115.2-77.7 44.7-18.9 92.2-28.5 141.1-28.5s96.4 9.6 141.1 28.5c43.2 18.3 81.9 44.4 115.2 77.7 33.3 33.3 59.4 72.1 77.7 115.2 18.9 44.7 28.5 92.2 28.5 141.1 0 48.9-9.6 96.4-28.5 141.1-18.3 43.2-44.4 81.9-77.7 115.2-33.3 33.3-72.1 59.4-115.2 77.7-44.7 18.9-92.2 28.5-141.1 28.5z m0-693.1c-88.3 0-171.3 34.4-233.7 96.8-62.4 62.4-96.8 145.4-96.8 233.7 0 88.3 34.4 171.3 96.8 233.7s145.4 96.8 233.7 96.8 171.3-34.4 233.7-96.8 96.8-145.4 96.8-233.7c0-88.3-34.4-171.3-96.8-233.7s-145.4-96.8-233.7-96.8z" fill="#00365B" p-id="2773"></path><path d="M511.8 878.2c-50.2 0-98.9-10.1-144.6-30-44.1-19.2-83.5-46.6-116.9-81.5-4.6-4.8-5.8-11.9-2.9-17.9 2.8-6 9.1-9.6 15.7-9.1 90.9 6.8 202.2-11.7 313.5-52.2l5.5 15-5.5-15c108.8-39.6 204.6-95.6 269.8-157.7 4.8-4.6 11.9-5.7 17.9-2.9 6 2.8 9.6 9 9.1 15.6-6.7 91.1-47.2 175.7-114.2 238.2-67.4 62.9-155.2 97.5-247.4 97.5zM304.4 773.1c23 18.6 48.3 33.9 75.6 45.8 41.6 18.1 86 27.3 131.8 27.3 84 0 164.1-31.6 225.5-88.9 50.8-47.4 84.9-108.7 98.5-175.7-65.8 53.5-152.3 101-248.3 135.9-98.3 35.9-197.1 55.1-283.1 55.6z" fill="#00365B" p-id="2774"></path></svg>